<mxfile host="app.diagrams.net" modified="2021-06-01T01:34:46.772Z" agent="5.0 (Windows NT 10.0; WOW64) AppleWebKit/537.36 (KHTML, like Gecko) Chrome/88.0.4324.104 Safari/537.36" etag="zSCJHWZMP4YirWQeOrqF" version="14.7.3" type="github">
  <diagram id="86M54Zdc4KKlk3HMwRWE" name="第 1 页">
    <mxGraphModel dx="1422" dy="785" grid="0" gridSize="10" guides="1" tooltips="1" connect="1" arrows="1" fold="1" page="1" pageScale="1" pageWidth="827" pageHeight="1169" math="0" shadow="0">
      <root>
        <mxCell id="0" />
        <mxCell id="1" parent="0" />
        <mxCell id="G9yLi9A-UWY0JcPAgX2z-17" value="" style="rounded=0;whiteSpace=wrap;html=1;dashed=1;" vertex="1" parent="1">
          <mxGeometry x="267" y="95" width="120" height="170" as="geometry" />
        </mxCell>
        <mxCell id="1q7IrHJcRKKRbDeTo753-1" value="标签计算" style="rounded=0;whiteSpace=wrap;html=1;" parent="1" vertex="1">
          <mxGeometry x="120" y="50" width="120" height="60" as="geometry" />
        </mxCell>
        <mxCell id="1q7IrHJcRKKRbDeTo753-2" value="门店信息" style="rounded=0;whiteSpace=wrap;html=1;" parent="1" vertex="1">
          <mxGeometry x="120" y="150" width="120" height="60" as="geometry" />
        </mxCell>
        <mxCell id="1q7IrHJcRKKRbDeTo753-3" value="基础信息" style="rounded=0;whiteSpace=wrap;html=1;" parent="1" vertex="1">
          <mxGeometry x="287" y="115" width="80" height="40" as="geometry" />
        </mxCell>
        <mxCell id="1q7IrHJcRKKRbDeTo753-4" value="额外信息" style="rounded=0;whiteSpace=wrap;html=1;" parent="1" vertex="1">
          <mxGeometry x="287" y="165" width="80" height="40" as="geometry" />
        </mxCell>
        <mxCell id="1q7IrHJcRKKRbDeTo753-5" value="供应商门店&lt;br&gt;信息" style="rounded=0;whiteSpace=wrap;html=1;" parent="1" vertex="1">
          <mxGeometry x="287" y="215" width="80" height="40" as="geometry" />
        </mxCell>
        <mxCell id="G9yLi9A-UWY0JcPAgX2z-22" style="edgeStyle=orthogonalEdgeStyle;rounded=0;orthogonalLoop=1;jettySize=auto;html=1;" edge="1" parent="1" source="1q7IrHJcRKKRbDeTo753-8" target="G9yLi9A-UWY0JcPAgX2z-17">
          <mxGeometry relative="1" as="geometry" />
        </mxCell>
        <mxCell id="1q7IrHJcRKKRbDeTo753-8" value="pms" style="rounded=0;whiteSpace=wrap;html=1;" parent="1" vertex="1">
          <mxGeometry x="430" y="185" width="74" height="50" as="geometry" />
        </mxCell>
        <mxCell id="G9yLi9A-UWY0JcPAgX2z-21" style="edgeStyle=orthogonalEdgeStyle;rounded=0;orthogonalLoop=1;jettySize=auto;html=1;exitX=0;exitY=0.5;exitDx=0;exitDy=0;entryX=1;entryY=0.5;entryDx=0;entryDy=0;" edge="1" parent="1" source="1q7IrHJcRKKRbDeTo753-9" target="G9yLi9A-UWY0JcPAgX2z-17">
          <mxGeometry relative="1" as="geometry" />
        </mxCell>
        <mxCell id="1q7IrHJcRKKRbDeTo753-9" value="直连&lt;br&gt;vendorID&amp;lt;3w" style="rounded=0;whiteSpace=wrap;html=1;" parent="1" vertex="1">
          <mxGeometry x="430" y="130" width="76" height="45" as="geometry" />
        </mxCell>
        <mxCell id="1q7IrHJcRKKRbDeTo753-10" value="车辆信息" style="rounded=0;whiteSpace=wrap;html=1;" parent="1" vertex="1">
          <mxGeometry x="120" y="310" width="120" height="60" as="geometry" />
        </mxCell>
        <mxCell id="G9yLi9A-UWY0JcPAgX2z-23" style="edgeStyle=orthogonalEdgeStyle;rounded=0;orthogonalLoop=1;jettySize=auto;html=1;entryX=1;entryY=0.5;entryDx=0;entryDy=0;" edge="1" parent="1" source="1q7IrHJcRKKRbDeTo753-11" target="1q7IrHJcRKKRbDeTo753-10">
          <mxGeometry relative="1" as="geometry" />
        </mxCell>
        <mxCell id="1q7IrHJcRKKRbDeTo753-11" value="直连&lt;br&gt;" style="rounded=0;whiteSpace=wrap;html=1;" parent="1" vertex="1">
          <mxGeometry x="289" y="290" width="76" height="45" as="geometry" />
        </mxCell>
        <mxCell id="G9yLi9A-UWY0JcPAgX2z-24" style="edgeStyle=orthogonalEdgeStyle;rounded=0;orthogonalLoop=1;jettySize=auto;html=1;entryX=1;entryY=0.5;entryDx=0;entryDy=0;" edge="1" parent="1" source="1q7IrHJcRKKRbDeTo753-12" target="1q7IrHJcRKKRbDeTo753-10">
          <mxGeometry relative="1" as="geometry" />
        </mxCell>
        <mxCell id="1q7IrHJcRKKRbDeTo753-12" value="pms" style="rounded=0;whiteSpace=wrap;html=1;" parent="1" vertex="1">
          <mxGeometry x="289" y="350" width="74" height="50" as="geometry" />
        </mxCell>
        <mxCell id="1q7IrHJcRKKRbDeTo753-13" value="规则引擎" style="rounded=0;whiteSpace=wrap;html=1;" parent="1" vertex="1">
          <mxGeometry x="120" y="470" width="120" height="60" as="geometry" />
        </mxCell>
        <mxCell id="1q7IrHJcRKKRbDeTo753-14" value="备份表" style="rounded=0;whiteSpace=wrap;html=1;" parent="1" vertex="1">
          <mxGeometry x="200" y="585" width="120" height="60" as="geometry" />
        </mxCell>
        <mxCell id="1q7IrHJcRKKRbDeTo753-15" value="主表" style="rounded=0;whiteSpace=wrap;html=1;" parent="1" vertex="1">
          <mxGeometry x="30" y="585" width="120" height="60" as="geometry" />
        </mxCell>
        <mxCell id="1q7IrHJcRKKRbDeTo753-17" style="edgeStyle=orthogonalEdgeStyle;rounded=0;orthogonalLoop=1;jettySize=auto;html=1;exitX=0;exitY=0.5;exitDx=0;exitDy=0;" parent="1" source="1q7IrHJcRKKRbDeTo753-16" target="1q7IrHJcRKKRbDeTo753-13" edge="1">
          <mxGeometry relative="1" as="geometry" />
        </mxCell>
        <mxCell id="1q7IrHJcRKKRbDeTo753-16" value="qconfig" style="rounded=0;whiteSpace=wrap;html=1;" parent="1" vertex="1">
          <mxGeometry x="289" y="477.5" width="76" height="45" as="geometry" />
        </mxCell>
        <mxCell id="G9yLi9A-UWY0JcPAgX2z-25" style="edgeStyle=orthogonalEdgeStyle;rounded=0;orthogonalLoop=1;jettySize=auto;html=1;entryX=0.5;entryY=0;entryDx=0;entryDy=0;" edge="1" parent="1" source="G9yLi9A-UWY0JcPAgX2z-1" target="G9yLi9A-UWY0JcPAgX2z-2">
          <mxGeometry relative="1" as="geometry" />
        </mxCell>
        <mxCell id="G9yLi9A-UWY0JcPAgX2z-1" value="评论分计算" style="rounded=0;whiteSpace=wrap;html=1;" vertex="1" parent="1">
          <mxGeometry x="971" y="65" width="120" height="60" as="geometry" />
        </mxCell>
        <mxCell id="G9yLi9A-UWY0JcPAgX2z-26" style="edgeStyle=orthogonalEdgeStyle;rounded=0;orthogonalLoop=1;jettySize=auto;html=1;entryX=0.5;entryY=0;entryDx=0;entryDy=0;" edge="1" parent="1" source="G9yLi9A-UWY0JcPAgX2z-2" target="G9yLi9A-UWY0JcPAgX2z-3">
          <mxGeometry relative="1" as="geometry" />
        </mxCell>
        <mxCell id="G9yLi9A-UWY0JcPAgX2z-2" value="供应商门店" style="rounded=0;whiteSpace=wrap;html=1;" vertex="1" parent="1">
          <mxGeometry x="971" y="195" width="120" height="60" as="geometry" />
        </mxCell>
        <mxCell id="G9yLi9A-UWY0JcPAgX2z-27" style="edgeStyle=orthogonalEdgeStyle;rounded=0;orthogonalLoop=1;jettySize=auto;html=1;entryX=0.5;entryY=0;entryDx=0;entryDy=0;" edge="1" parent="1" source="G9yLi9A-UWY0JcPAgX2z-3" target="G9yLi9A-UWY0JcPAgX2z-6">
          <mxGeometry relative="1" as="geometry" />
        </mxCell>
        <mxCell id="G9yLi9A-UWY0JcPAgX2z-3" value="评论加载" style="rounded=0;whiteSpace=wrap;html=1;" vertex="1" parent="1">
          <mxGeometry x="971" y="305" width="120" height="60" as="geometry" />
        </mxCell>
        <mxCell id="G9yLi9A-UWY0JcPAgX2z-30" style="edgeStyle=orthogonalEdgeStyle;rounded=0;orthogonalLoop=1;jettySize=auto;html=1;entryX=1;entryY=0.5;entryDx=0;entryDy=0;" edge="1" parent="1" source="G9yLi9A-UWY0JcPAgX2z-5" target="G9yLi9A-UWY0JcPAgX2z-3">
          <mxGeometry relative="1" as="geometry" />
        </mxCell>
        <mxCell id="G9yLi9A-UWY0JcPAgX2z-5" value="ucp" style="rounded=0;whiteSpace=wrap;html=1;" vertex="1" parent="1">
          <mxGeometry x="1131" y="312.5" width="76" height="45" as="geometry" />
        </mxCell>
        <mxCell id="G9yLi9A-UWY0JcPAgX2z-28" style="edgeStyle=orthogonalEdgeStyle;rounded=0;orthogonalLoop=1;jettySize=auto;html=1;entryX=0.5;entryY=0;entryDx=0;entryDy=0;" edge="1" parent="1" source="G9yLi9A-UWY0JcPAgX2z-6" target="G9yLi9A-UWY0JcPAgX2z-7">
          <mxGeometry relative="1" as="geometry" />
        </mxCell>
        <mxCell id="G9yLi9A-UWY0JcPAgX2z-29" style="edgeStyle=orthogonalEdgeStyle;rounded=0;orthogonalLoop=1;jettySize=auto;html=1;entryX=0.5;entryY=0;entryDx=0;entryDy=0;" edge="1" parent="1" source="G9yLi9A-UWY0JcPAgX2z-6" target="G9yLi9A-UWY0JcPAgX2z-8">
          <mxGeometry relative="1" as="geometry" />
        </mxCell>
        <mxCell id="G9yLi9A-UWY0JcPAgX2z-6" value="评论分计算" style="rounded=0;whiteSpace=wrap;html=1;" vertex="1" parent="1">
          <mxGeometry x="971" y="405" width="120" height="60" as="geometry" />
        </mxCell>
        <mxCell id="G9yLi9A-UWY0JcPAgX2z-7" value="es" style="rounded=0;whiteSpace=wrap;html=1;" vertex="1" parent="1">
          <mxGeometry x="901" y="507.5" width="120" height="60" as="geometry" />
        </mxCell>
        <mxCell id="G9yLi9A-UWY0JcPAgX2z-8" value="ucp" style="rounded=0;whiteSpace=wrap;html=1;" vertex="1" parent="1">
          <mxGeometry x="1041" y="507.5" width="120" height="60" as="geometry" />
        </mxCell>
        <mxCell id="G9yLi9A-UWY0JcPAgX2z-32" style="edgeStyle=orthogonalEdgeStyle;rounded=0;orthogonalLoop=1;jettySize=auto;html=1;entryX=1;entryY=0.5;entryDx=0;entryDy=0;" edge="1" parent="1" source="G9yLi9A-UWY0JcPAgX2z-9" target="G9yLi9A-UWY0JcPAgX2z-10">
          <mxGeometry relative="1" as="geometry" />
        </mxCell>
        <mxCell id="G9yLi9A-UWY0JcPAgX2z-9" value="客户权重" style="rounded=0;whiteSpace=wrap;html=1;" vertex="1" parent="1">
          <mxGeometry x="1231" y="385" width="76" height="45" as="geometry" />
        </mxCell>
        <mxCell id="G9yLi9A-UWY0JcPAgX2z-31" style="edgeStyle=orthogonalEdgeStyle;rounded=0;orthogonalLoop=1;jettySize=auto;html=1;entryX=1;entryY=0.5;entryDx=0;entryDy=0;" edge="1" parent="1" source="G9yLi9A-UWY0JcPAgX2z-10" target="G9yLi9A-UWY0JcPAgX2z-6">
          <mxGeometry relative="1" as="geometry" />
        </mxCell>
        <mxCell id="G9yLi9A-UWY0JcPAgX2z-10" value="子项加权求和" style="rounded=0;whiteSpace=wrap;html=1;" vertex="1" parent="1">
          <mxGeometry x="1131" y="412.5" width="76" height="45" as="geometry" />
        </mxCell>
        <mxCell id="G9yLi9A-UWY0JcPAgX2z-33" style="edgeStyle=orthogonalEdgeStyle;rounded=0;orthogonalLoop=1;jettySize=auto;html=1;entryX=1;entryY=0.5;entryDx=0;entryDy=0;" edge="1" parent="1" source="G9yLi9A-UWY0JcPAgX2z-11" target="G9yLi9A-UWY0JcPAgX2z-10">
          <mxGeometry relative="1" as="geometry" />
        </mxCell>
        <mxCell id="G9yLi9A-UWY0JcPAgX2z-11" value="新鲜度" style="rounded=0;whiteSpace=wrap;html=1;" vertex="1" parent="1">
          <mxGeometry x="1231" y="437.5" width="76" height="45" as="geometry" />
        </mxCell>
        <mxCell id="G9yLi9A-UWY0JcPAgX2z-12" value="" style="endArrow=classic;html=1;exitX=0.5;exitY=1;exitDx=0;exitDy=0;entryX=0.5;entryY=0;entryDx=0;entryDy=0;" edge="1" parent="1" source="1q7IrHJcRKKRbDeTo753-1" target="1q7IrHJcRKKRbDeTo753-2">
          <mxGeometry width="50" height="50" relative="1" as="geometry">
            <mxPoint x="170" y="160" as="sourcePoint" />
            <mxPoint x="220" y="110" as="targetPoint" />
          </mxGeometry>
        </mxCell>
        <mxCell id="G9yLi9A-UWY0JcPAgX2z-13" value="" style="endArrow=classic;html=1;exitX=0.5;exitY=1;exitDx=0;exitDy=0;" edge="1" parent="1" source="1q7IrHJcRKKRbDeTo753-2">
          <mxGeometry width="50" height="50" relative="1" as="geometry">
            <mxPoint x="140" y="310" as="sourcePoint" />
            <mxPoint x="180" y="310" as="targetPoint" />
          </mxGeometry>
        </mxCell>
        <mxCell id="G9yLi9A-UWY0JcPAgX2z-14" value="" style="endArrow=classic;html=1;exitX=0.5;exitY=1;exitDx=0;exitDy=0;entryX=0.5;entryY=0;entryDx=0;entryDy=0;" edge="1" parent="1" source="1q7IrHJcRKKRbDeTo753-10" target="1q7IrHJcRKKRbDeTo753-13">
          <mxGeometry width="50" height="50" relative="1" as="geometry">
            <mxPoint x="150" y="320" as="sourcePoint" />
            <mxPoint x="200" y="270" as="targetPoint" />
          </mxGeometry>
        </mxCell>
        <mxCell id="G9yLi9A-UWY0JcPAgX2z-15" value="" style="endArrow=classic;html=1;exitX=0.5;exitY=1;exitDx=0;exitDy=0;entryX=0.5;entryY=0;entryDx=0;entryDy=0;" edge="1" parent="1" source="1q7IrHJcRKKRbDeTo753-13" target="1q7IrHJcRKKRbDeTo753-14">
          <mxGeometry width="50" height="50" relative="1" as="geometry">
            <mxPoint x="250" y="585" as="sourcePoint" />
            <mxPoint x="300" y="535" as="targetPoint" />
            <Array as="points">
              <mxPoint x="180" y="560" />
              <mxPoint x="260" y="560" />
            </Array>
          </mxGeometry>
        </mxCell>
        <mxCell id="G9yLi9A-UWY0JcPAgX2z-16" value="" style="endArrow=classic;html=1;exitX=0.5;exitY=1;exitDx=0;exitDy=0;entryX=0.5;entryY=0;entryDx=0;entryDy=0;" edge="1" parent="1" source="1q7IrHJcRKKRbDeTo753-13" target="1q7IrHJcRKKRbDeTo753-15">
          <mxGeometry width="50" height="50" relative="1" as="geometry">
            <mxPoint x="170" y="340" as="sourcePoint" />
            <mxPoint x="220" y="290" as="targetPoint" />
            <Array as="points">
              <mxPoint x="180" y="560" />
              <mxPoint x="90" y="560" />
            </Array>
          </mxGeometry>
        </mxCell>
        <mxCell id="G9yLi9A-UWY0JcPAgX2z-18" value="" style="endArrow=classic;html=1;entryX=1;entryY=0.5;entryDx=0;entryDy=0;exitX=0;exitY=0.5;exitDx=0;exitDy=0;" edge="1" parent="1" source="G9yLi9A-UWY0JcPAgX2z-17" target="1q7IrHJcRKKRbDeTo753-2">
          <mxGeometry width="50" height="50" relative="1" as="geometry">
            <mxPoint x="250" y="250" as="sourcePoint" />
            <mxPoint x="300" y="200" as="targetPoint" />
          </mxGeometry>
        </mxCell>
        <mxCell id="G9yLi9A-UWY0JcPAgX2z-35" style="edgeStyle=orthogonalEdgeStyle;rounded=0;orthogonalLoop=1;jettySize=auto;html=1;entryX=1;entryY=0.5;entryDx=0;entryDy=0;" edge="1" parent="1" source="G9yLi9A-UWY0JcPAgX2z-34" target="G9yLi9A-UWY0JcPAgX2z-2">
          <mxGeometry relative="1" as="geometry" />
        </mxCell>
        <mxCell id="G9yLi9A-UWY0JcPAgX2z-34" value="operationDB" style="shape=cylinder3;whiteSpace=wrap;html=1;boundedLbl=1;backgroundOutline=1;size=15;" vertex="1" parent="1">
          <mxGeometry x="1137" y="195" width="70" height="60" as="geometry" />
        </mxCell>
      </root>
    </mxGraphModel>
  </diagram>
</mxfile>
